<?xml version="1.0" encoding="utf-8"?>
<!-- Generator: Adobe Illustrator 22.1.0, SVG Export Plug-In . SVG Version: 6.00 Build 0)  -->
<svg version="1.1" id="Layer_1" xmlns="http://www.w3.org/2000/svg" xmlns:xlink="http://www.w3.org/1999/xlink" x="0px" y="0px"
	 viewBox="0 0 512 512" style="enable-background:new 0 0 512 512;" xml:space="preserve">
<style type="text/css">
	.st0{fill:#0096D6;}
</style>
<g>
	<g>
		<path class="st0" d="M405.3,133.5l-80.9-76.1H0v341.3l229.6,0l111.7,55.9l0-55.9h64V133.5z M330.7,92.5l43.6,41h-43.6V92.5z
			 M384,377.4h-64l0,42.7l-85.3-42.7l-213.3,0V78.7h288v76.2H384V377.4z"/>
	</g>
</g>
<g>
	<g>
		<path class="st0" d="M512,101.4c0-23.6-19.1-42.7-42.7-42.7c-23.6,0-42.7,19.1-42.7,42.7v277.3h14.8l-14.8,46.2l42.7,28.5
			l42.7-28.5l-14.8-46.2H512V101.4z M469.3,427.7l-17.4-11.6l12-37.4h10.9l12,37.4L469.3,427.7z M490.7,357.4H448v-256
			c0-11.8,9.6-21.3,21.3-21.3c11.8,0,21.3,9.6,21.3,21.3V357.4z"/>
	</g>
</g>
<g>
	<g>
		<path class="st0" d="M330.7,281.4h-256c-5.9,0-10.7,4.8-10.7,10.7c0,5.9,4.8,10.7,10.7,10.7h256c5.9,0,10.7-4.8,10.7-10.7
			C341.3,286.2,336.6,281.4,330.7,281.4z"/>
	</g>
</g>
<g>
	<g>
		<path class="st0" d="M330.7,217.4h-256c-5.9,0-10.7,4.8-10.7,10.7c0,5.9,4.8,10.7,10.7,10.7h256c5.9,0,10.7-4.8,10.7-10.7
			C341.3,222.2,336.6,217.4,330.7,217.4z"/>
	</g>
</g>
<g>
	<g>
		<path class="st0" d="M213.3,153.4H74.7c-5.9,0-10.7,4.8-10.7,10.7c0,5.9,4.8,10.7,10.7,10.7h138.7c5.9,0,10.7-4.8,10.7-10.7
			C224,158.2,219.2,153.4,213.3,153.4z"/>
	</g>
</g>
</svg>
