<svg width="14" height="14" viewBox="0 0 14 14" fill="none" xmlns="http://www.w3.org/2000/svg">
<path fill-rule="evenodd" clip-rule="evenodd" d="M3.5 0C3.71478 0 3.88889 0.174111 3.88889 0.388889V1.16667H8.94444C9.15922 1.16667 9.33333 1.34078 9.33333 1.55556C9.33333 1.77033 9.15922 1.94444 8.94444 1.94444H3.88889V2.72222C3.88889 2.937 3.71478 3.11111 3.5 3.11111C3.28522 3.11111 3.11111 2.937 3.11111 2.72222V0.388889C3.11111 0.174111 3.28522 0 3.5 0ZM10.5 0C10.7148 0 10.8889 0.174111 10.8889 0.388889V1.16667H12.4444C13.3036 1.16667 14 1.86311 14 2.72222V12.4444C14 13.3036 13.3036 14 12.4444 14H1.55556C0.696447 14 0 13.3036 0 12.4444V2.72222C0 1.86311 0.696446 1.16667 1.55556 1.16667H1.94444C2.15922 1.16667 2.33333 1.34078 2.33333 1.55556C2.33333 1.77033 2.15922 1.94444 1.94444 1.94444H1.55556C1.126 1.94444 0.777778 2.29267 0.777778 2.72222V4.66667H13.2222V2.72222C13.2222 2.29267 12.874 1.94444 12.4444 1.94444H10.8889V2.72222C10.8889 2.937 10.7148 3.11111 10.5 3.11111C10.2852 3.11111 10.1111 2.937 10.1111 2.72222V0.388889C10.1111 0.174111 10.2852 0 10.5 0ZM13.2222 5.44444H0.777778V12.4444C0.777778 12.874 1.126 13.2222 1.55556 13.2222H12.4444C12.874 13.2222 13.2222 12.874 13.2222 12.4444V5.44444Z" fill="#6D7278"/>
</svg>
