<svg xmlns="http://www.w3.org/2000/svg" width="83" height="64" viewBox="0 0 83 64">
  <defs>
    <style>
      .cls-1 {
        fill: #0096d6;
        fill-rule: evenodd;
      }
    </style>
  </defs>
  <path id="Desktop_Hover_64px.png" class="cls-1" d="M349.812,649a0.8,0.8,0,1,1,0-1.607h9.1V632.13H339.635A2.637,2.637,0,0,1,337,629.5V587.634A2.637,2.637,0,0,1,339.635,585h57.658a2.637,2.637,0,0,1,2.635,2.634v9.085H419.2a0.8,0.8,0,0,1,.8.8V648.2a0.8,0.8,0,0,1-.8.8H349.812Zm43.473-1.607h25.1V598.328H399.928v4.524H414.58a0.8,0.8,0,0,1,.8.8V610.1a0.8,0.8,0,0,1-.8.805H399.928v5.268H414.58a0.8,0.8,0,0,1,.8.8v6.442a0.8,0.8,0,0,1-.8.8H399.928V629.5a2.637,2.637,0,0,1-2.635,2.634h-4.008v15.263Zm-15.02,0h13.412V632.13H378.265v15.263Zm-17.747,0h16.138V632.13h-4.217v10.527a0.806,0.806,0,0,1-.8.8h-6.094a0.806,0.806,0,0,1-.8-0.8V632.13h-4.219v15.263Zm5.827-5.539h4.485V632.13h-4.485v9.724Zm-27.737-11.332h59.711V586.608H338.608v43.914Zm61.32-7.908h13.848v-4.835H399.928v4.835Zm0-13.319h13.848V604.46H399.928v4.835Zm-9.278-17.467H346.276a2.637,2.637,0,0,0-2.634,2.634v28.205a2.638,2.638,0,0,0,2.634,2.635H390.65a2.638,2.638,0,0,0,2.635-2.635V594.462A2.638,2.638,0,0,0,390.65,591.828Zm1.027,31.865H345.25V593.436h46.427v30.257Zm14.97,8.437a0.8,0.8,0,1,1,0-1.608h7.933a0.8,0.8,0,1,1,0,1.608h-7.933Zm-4.6,12.038a4.152,4.152,0,1,1,.1,0h-0.1Zm0-6.69a2.542,2.542,0,1,0,.1,0h-0.1Zm10.192,6.69a4.152,4.152,0,1,1,.1,0h-0.1Zm0-6.69a2.544,2.544,0,1,0,.1,0h-0.1Z" transform="translate(-337 -585)"/>
</svg>
