<svg id="Layer_1" data-name="Layer 1" xmlns="http://www.w3.org/2000/svg" viewBox="0 0 23.94 20"><defs><style>.cls-1{fill:#1096d4;}</style></defs><title>discussion</title><path class="cls-1" d="M20.12,20a1,1,0,0,1-.74-.35l-2.74-3.07H8.07a.72.72,0,0,1-.51-.21.75.75,0,0,1-.21-.5.71.71,0,0,1,.71-.71H17a.73.73,0,0,1,.55.25l2.18,2.46v-2a.71.71,0,0,1,.71-.71h1.22a.87.87,0,0,0,.88-.87V5.77a.87.87,0,0,0-.87-.85.76.76,0,0,1-.52-.21.71.71,0,0,1,.51-1.2,2.31,2.31,0,0,1,2.31,2.26v8.52a2.3,2.3,0,0,1-2.3,2.28h-.51V19a1,1,0,0,1-.65.93,1,1,0,0,1-.35.06ZM3.8,16.48a1,1,0,0,1-1-1V13.05h-.5A2.29,2.29,0,0,1,0,10.79V2.27A2.31,2.31,0,0,1,2.3,0H17a2.32,2.32,0,0,1,2.32,2.26v8.53a2.3,2.3,0,0,1-2.29,2.26H7.3l-2.73,3.1a1,1,0,0,1-.75.33Zm-.27-4.84a.71.71,0,0,1,.71.71v2l2.19-2.48A.7.7,0,0,1,7,11.65H17a.87.87,0,0,0,.88-.86V2.27a.87.87,0,0,0-.86-.86H2.31a.88.88,0,0,0-.88.86v8.52a.87.87,0,0,0,.87.85Zm6.12-4.1a.81.81,0,0,1-.8-.81.82.82,0,1,1,.81.81Zm-2.37,0a.81.81,0,0,1-.8-.81.81.81,0,0,1,1.41-.56.77.77,0,0,1,.22.58.81.81,0,0,1-.81.79Zm4.74,0a.81.81,0,0,1-.8-.81.82.82,0,1,1,.82.81Z"/></svg>