<svg xmlns="http://www.w3.org/2000/svg" width="63.687" height="63.594" viewBox="0 0 63.687 63.594">
  <defs>
    <style>
      .cls-1 {
        fill: #0096d6;
        fill-rule: evenodd;
      }
    </style>
  </defs>
  <path id="Gaming_Hover_64px.png" class="cls-1" d="M662.382,627.467h-4.247v-4.241a1.062,1.062,0,0,0-1.062-1.06h-4.248a1.061,1.061,0,0,0-1.061,1.06v4.241h-4.248a1.061,1.061,0,0,0-1.062,1.06v4.241a1.061,1.061,0,0,0,1.062,1.06h4.248v4.241a1.061,1.061,0,0,0,1.061,1.06h4.248a1.062,1.062,0,0,0,1.062-1.06v-4.241h4.247a1.062,1.062,0,0,0,1.062-1.06v-4.241A1.062,1.062,0,0,0,662.382,627.467Zm-1.062,4.24h-4.247a1.061,1.061,0,0,0-1.062,1.061v4.24h-2.124v-4.24a1.061,1.061,0,0,0-1.062-1.061h-4.247v-2.12h4.247a1.061,1.061,0,0,0,1.062-1.06v-4.241h2.124v4.241a1.061,1.061,0,0,0,1.062,1.06h4.247v2.12Zm40.243-3c-0.814-7.307-7.686-14.141-15.01-14.921a17.755,17.755,0,0,0-1.873-.106H673v-4.24h-2.124v-2.121a4.244,4.244,0,0,0-4.247-4.241H661.32a2.12,2.12,0,1,1,0-4.24h16.989a4.241,4.241,0,1,0,0-8.482H673a2.122,2.122,0,0,1-2.124-2.12V584h-2.123v4.241A4.244,4.244,0,0,0,673,592.481h5.309a2.12,2.12,0,1,1,0,4.24H661.32a4.241,4.241,0,1,0,0,8.482h5.309a2.122,2.122,0,0,1,2.124,2.12v2.121h-2.124v4.24h-11.68a17.777,17.777,0,0,0-1.875.106c-7.327.785-14.195,7.62-15.007,14.926a16.99,16.99,0,0,0,25.823,16.35,10.414,10.414,0,0,1,4.661-1.644,16.41,16.41,0,0,1,2.469-.009,10.493,10.493,0,0,1,4.733,1.663A16.981,16.981,0,0,0,701.563,628.711Zm-32.81-17.147h2.123v2.12h-2.123v-2.12Zm27.007,28.979a14.872,14.872,0,0,1-18.888,2.73,12.541,12.541,0,0,0-5.7-1.975q-0.674-.048-1.357-0.049c-0.484,0-.956.02-1.432,0.057a12.5,12.5,0,0,0-5.615,1.958,14.86,14.86,0,0,1-22.591-14.313c0.7-6.279,6.83-12.377,13.125-13.052a15.352,15.352,0,0,1,1.647-.094H684.68a15.361,15.361,0,0,1,1.647.088c6.294,0.675,12.423,6.773,13.124,13.051A14.718,14.718,0,0,1,695.76,640.543Zm-11.08-12.016a4.241,4.241,0,1,0-4.247-4.241A4.245,4.245,0,0,0,684.68,628.527Zm0-6.361a2.121,2.121,0,1,1-2.123,2.12A2.122,2.122,0,0,1,684.68,622.166Zm0,10.6a4.241,4.241,0,1,0,4.248,4.24A4.243,4.243,0,0,0,684.68,632.768Zm0,6.361a2.121,2.121,0,1,1,2.124-2.121A2.121,2.121,0,0,1,684.68,639.129Zm-7.433-12.722a4.241,4.241,0,1,0,4.248,4.24A4.243,4.243,0,0,0,677.247,626.407Zm0,6.361a2.121,2.121,0,1,1,2.124-2.121A2.121,2.121,0,0,1,677.247,632.768Zm14.866-6.361a4.241,4.241,0,1,0,4.247,4.24A4.243,4.243,0,0,0,692.113,626.407Zm0,6.361a2.121,2.121,0,1,1,2.124-2.121A2.122,2.122,0,0,1,692.113,632.768Z" transform="translate(-637.969 -584)"/>
</svg>
