<svg width="19" height="17" viewBox="0 0 19 17" fill="none" xmlns="http://www.w3.org/2000/svg">
<path d="M16.1001 1C16.7001 1 17.1001 1.4 17.1001 2V12C17.1001 12.6 16.7001 13 16.1001 13H8.6001C8.0001 13 7.4001 13.3 7.0001 13.8L5.3001 16C5.3001 16 5.3001 16 5.2001 16C5.2001 16 5.1001 16 5.1001 15.9V14.3C5.1001 13.6 4.5001 13.1 3.9001 13.1H2.1001C1.5001 13.1 1.1001 12.7 1.1001 12.1V2.10001C1.1001 1.50001 1.5001 1 2.1001 1H16H16.1001ZM16.1001 0H2.1001C1.0001 0 0.100098 0.9 0.100098 2V12C0.100098 13.1 1.0001 14 2.1001 14H3.9001C4.0001 14 4.1001 14.1 4.1001 14.2V15.8C4.1001 16.5 4.6001 16.9 5.2001 16.9C5.5001 16.9 5.8001 16.8 6.0001 16.5L7.7001 14.3C7.9001 14.1 8.2001 13.9 8.5001 13.9H16.0001C17.1001 13.9 18.0001 13 18.0001 11.9V1.89999C18.1001 0.899994 17.2001 0 16.1001 0Z" fill="#6D7278"/>
</svg>
