<svg width="17" height="21" viewBox="0 0 17 21" fill="none" xmlns="http://www.w3.org/2000/svg">
<path d="M1.62695 9.02349C1.62695 7.68625 2.17685 5.9721 3.2951 4.58634C4.17999 3.48977 5.43198 2.58691 7.05776 2.24605C6.96054 2.04247 6.90625 1.81501 6.90625 1.575C6.90625 0.705149 7.61983 0 8.5 0C9.38017 0 10.0938 0.705149 10.0938 1.575C10.0938 1.81501 10.0395 2.04248 9.94224 2.24605C11.568 2.58691 12.82 3.48977 13.7049 4.58634C14.8232 5.9721 15.3731 7.68625 15.3731 9.02349V13.6828C15.3731 15.3008 16.2626 16.7799 16.7843 17.4069C16.9162 17.5653 17 17.7705 17 17.9948C17 18.4947 16.5899 18.9 16.084 18.9H11.5061C11.0686 20.1235 9.88784 21 8.5 21C7.11216 21 5.93145 20.1235 5.49388 18.9H0.915981C0.410093 18.9 0 18.4947 0 17.9948C0 17.7705 0.0838204 17.5653 0.21573 17.4069C0.737407 16.7799 1.62695 15.3008 1.62695 13.6828V9.02349ZM2.68945 13.6828C2.68945 15.4572 1.82568 17.0303 1.21254 17.85H15.7875C15.1743 17.0303 14.3106 15.4572 14.3106 13.6828V9.02349C14.3106 7.9325 13.8478 6.44744 12.8742 5.241C11.9132 4.05014 10.4726 3.15 8.5 3.15C6.52736 3.15 5.08677 4.05014 4.12579 5.241C3.15225 6.44744 2.68945 7.9325 2.68945 9.02349V13.6828ZM10.3407 18.9H6.65933C7.02674 19.5277 7.71343 19.95 8.5 19.95C9.28657 19.95 9.97326 19.5277 10.3407 18.9Z" fill="#212121"/>
</svg>
