<svg width="20" height="14" viewBox="0 0 20 14" fill="none" xmlns="http://www.w3.org/2000/svg">
<path fill-rule="evenodd" clip-rule="evenodd" d="M2 0C0.89543 0 0 0.895431 0 2V12C0 13.1046 0.89543 14 2 14H18C19.1046 14 20 13.1046 20 12V2C20 0.895431 19.1046 0 18 0H2ZM1.6672 1.05671C1.77131 1.01998 1.88332 1 2 1H18C18.1167 1 18.2287 1.01998 18.3328 1.05671L10.5735 6.48825C10.2291 6.72927 9.77086 6.72927 9.42654 6.48825L1.6672 1.05671ZM1.01589 1.82145C1.00545 1.87939 1 1.93906 1 2V12C1 12.5523 1.44772 13 2 13H18C18.5523 13 19 12.5523 19 12V2C19 1.93906 18.9945 1.87939 18.9841 1.82145L11.1469 7.30748C10.4583 7.78953 9.54171 7.78953 8.85308 7.30748L1.01589 1.82145Z" fill="#212121"/>
</svg>
