<svg width="20" height="20" viewBox="0 0 20 20" fill="none" xmlns="http://www.w3.org/2000/svg">
<path fill-rule="evenodd" clip-rule="evenodd" d="M10 0C15.5228 0 20 4.47715 20 10C20 15.5228 15.5228 20 10 20C4.47715 20 0 15.5228 0 10C0 4.47715 4.47715 0 10 0ZM10 16C10.2761 16 10.5 15.7761 10.5 15.5V8C10.5 7.72386 10.2761 7.5 10 7.5C9.72386 7.5 9.5 7.72386 9.5 8V15.5C9.5 15.7761 9.72386 16 10 16ZM11 5C11 4.44771 10.5523 4 10 4C9.44771 4 9 4.44771 9 5C9 5.55229 9.44771 6 10 6C10.5523 6 11 5.55229 11 5Z" fill="#737373"/>
</svg>
