<svg width="18" height="16" viewBox="0 0 18 16" fill="none" xmlns="http://www.w3.org/2000/svg">
<path fill-rule="evenodd" clip-rule="evenodd" d="M6.8476 0.0351086C7.00255 0.102048 7.10272 0.253594 7.10272 0.42106V3.37827C10.4712 3.53549 12.8618 5.55422 14.4704 7.97927C16.1422 10.4996 17.0087 13.5099 17.2984 15.5193C17.3279 15.7238 17.2034 15.9192 17.0044 15.9808C16.8055 16.0424 16.5908 15.9519 16.4976 15.7672C14.8637 12.5298 11.7148 8.65724 7.10272 8.43139V11.3684C7.10272 11.5358 7.00255 11.6874 6.8476 11.7543C6.69266 11.8213 6.5124 11.7909 6.38853 11.6769L0.438542 6.20326C0.351942 6.1236 0.302734 6.0118 0.302734 5.89472C0.302734 5.77764 0.351942 5.66585 0.438542 5.58618L6.38853 0.112517C6.5124 -0.00143596 6.69266 -0.0318306 6.8476 0.0351086ZM1.35232 5.89472L6.25272 10.4028V7.99997C6.25272 7.76743 6.443 7.57892 6.67772 7.57892C10.8663 7.57892 13.9246 10.2766 15.8797 13.0792C15.428 11.5733 14.7367 9.91416 13.76 8.44173C12.1771 6.05529 9.88429 4.21052 6.67772 4.21052C6.443 4.21052 6.25272 4.02201 6.25272 3.78947V1.38662L1.35232 5.89472Z" fill="#6D7278"/>
</svg>
