<svg width="23" height="23" viewBox="0 0 23 23" fill="none" xmlns="http://www.w3.org/2000/svg">
<path fill-rule="evenodd" clip-rule="evenodd" d="M17 8.875C17 4.38769 13.3623 0.75 8.875 0.75C4.38769 0.75 0.75 4.38769 0.75 8.875C0.75 13.3623 4.38769 17 8.875 17C10.8937 17 12.7404 16.2638 14.1614 15.0452L21.5572 22.441L22 22L21.5581 22.4419C21.8022 22.686 22.1979 22.686 22.442 22.4419C22.6861 22.1979 22.6861 21.8021 22.442 21.5581L22.4411 21.5571L15.0453 14.1614C16.2638 12.7404 17 10.8937 17 8.875ZM8.875 2C12.672 2 15.75 5.07804 15.75 8.875C15.75 12.672 12.672 15.75 8.875 15.75C5.07804 15.75 2 12.672 2 8.875C2 5.07804 5.07804 2 8.875 2Z" fill="white"/>
</svg>
