<svg width="17" height="16" viewBox="0 0 17 16" fill="none" xmlns="http://www.w3.org/2000/svg">
<path fill-rule="evenodd" clip-rule="evenodd" d="M12.4106 5.49217C12.5668 5.64838 12.5668 5.90164 12.4106 6.05785L6.98559 11.4828C6.82938 11.6391 6.57612 11.6391 6.41991 11.4828L3.61989 8.68283C3.46368 8.52662 3.46368 8.27335 3.61989 8.11714C3.7761 7.96093 4.02937 7.96093 4.18558 8.11714L6.70275 10.6343L11.8449 5.49217C12.0011 5.33596 12.2544 5.33596 12.4106 5.49217Z" fill="#027AAE"/>
<path fill-rule="evenodd" clip-rule="evenodd" d="M8.30273 15.2C12.2792 15.2 15.5027 11.9764 15.5027 8C15.5027 4.02355 12.2792 0.8 8.30273 0.8C4.32628 0.8 1.10273 4.02355 1.10273 8C1.10273 11.9764 4.32628 15.2 8.30273 15.2ZM8.30273 16C12.721 16 16.3027 12.4183 16.3027 8C16.3027 3.58172 12.721 0 8.30273 0C3.88446 0 0.302734 3.58172 0.302734 8C0.302734 12.4183 3.88446 16 8.30273 16Z" fill="#027AAE"/>
</svg>
