<svg width="17" height="16" viewBox="0 0 17 16" fill="none" xmlns="http://www.w3.org/2000/svg">
<path d="M8.70273 3.6C8.70273 3.37909 8.52365 3.2 8.30273 3.2C8.08182 3.2 7.90273 3.37909 7.90273 3.6V8C7.90273 8.10609 7.94488 8.20783 8.01989 8.28284L10.4199 10.6828C10.5761 10.8391 10.8294 10.8391 10.9856 10.6828C11.1418 10.5266 11.1418 10.2734 10.9856 10.1172L8.70273 7.83431V3.6Z" fill="#027AAE"/>
<path fill-rule="evenodd" clip-rule="evenodd" d="M16.3027 8C16.3027 12.4183 12.721 16 8.30273 16C3.88446 16 0.302734 12.4183 0.302734 8C0.302734 3.58172 3.88446 0 8.30273 0C12.721 0 16.3027 3.58172 16.3027 8ZM15.5027 8C15.5027 11.9765 12.2792 15.2 8.30273 15.2C4.32628 15.2 1.10273 11.9765 1.10273 8C1.10273 4.02355 4.32628 0.8 8.30273 0.8C12.2792 0.8 15.5027 4.02355 15.5027 8Z" fill="#027AAE"/>
</svg>
