<svg width="17" height="17" viewBox="0 0 17 17" fill="none" xmlns="http://www.w3.org/2000/svg">
<path fill-rule="evenodd" clip-rule="evenodd" d="M12.4106 6.42601C12.5668 6.58195 12.5668 6.83478 12.4106 6.99072L6.98559 12.4063C6.82938 12.5623 6.57612 12.5623 6.41991 12.4063L3.61989 9.61117C3.46368 9.45522 3.46368 9.2024 3.61989 9.04646C3.7761 8.89052 4.02937 8.89052 4.18558 9.04646L6.70275 11.5593L11.8449 6.42601C12.0011 6.27007 12.2544 6.27007 12.4106 6.42601Z" fill="#6D7278"/>
<path fill-rule="evenodd" clip-rule="evenodd" d="M8.30273 16.1171C12.2792 16.1171 15.5027 12.8991 15.5027 8.92952C15.5027 4.95993 12.2792 1.74195 8.30273 1.74195C4.32628 1.74195 1.10273 4.95993 1.10273 8.92952C1.10273 12.8991 4.32628 16.1171 8.30273 16.1171ZM8.30273 16.9157C12.721 16.9157 16.3027 13.3402 16.3027 8.92952C16.3027 4.51887 12.721 0.943329 8.30273 0.943329C3.88446 0.943329 0.302734 4.51887 0.302734 8.92952C0.302734 13.3402 3.88446 16.9157 8.30273 16.9157Z" fill="#6D7278"/>
</svg>
