<svg width="16" height="20" viewBox="0 0 16 20" fill="none" xmlns="http://www.w3.org/2000/svg">
<path fill-rule="evenodd" clip-rule="evenodd" d="M3 5C3 2.23858 5.23858 0 8 0C10.7614 0 13 2.23858 13 5V9H14C15.1046 9 16 9.89543 16 11V18C16 19.1046 15.1046 20 14 20H2C0.895431 20 0 19.1046 0 18V11C0 9.89543 0.895431 9 2 9H3V5ZM12 5V9H4V5C4 2.79086 5.79086 1 8 1C10.2091 1 12 2.79086 12 5ZM1 11C1 10.4477 1.44772 10 2 10H14C14.5523 10 15 10.4477 15 11V18C15 18.5523 14.5523 19 14 19H2C1.44772 19 1 18.5523 1 18V11ZM8.5 13.8662C8.7989 13.6933 9 13.3701 9 13C9 12.4477 8.55229 12 8 12C7.44772 12 7 12.4477 7 13C7 13.3701 7.2011 13.6933 7.5 13.8662V16.5C7.5 16.7761 7.72386 17 8 17C8.27614 17 8.5 16.7761 8.5 16.5V13.8662Z" fill="#fff"/>
</svg>
