<svg width="20" height="14" viewBox="0 0 20 14" fill="none" xmlns="http://www.w3.org/2000/svg">
<path d="M19.9422 6.7666C19.9422 6.7666 19.9121 6.71143 19.8986 6.68732C19.8715 6.63928 19.8319 6.5705 19.7797 6.48389C19.6754 6.31091 19.5205 6.06659 19.3152 5.77478C18.9049 5.19177 18.29 4.41492 17.4689 3.63702C15.8282 2.0827 13.3363 0.5 10 0.5C6.66371 0.5 4.17183 2.0827 2.53114 3.63702C1.71004 4.41492 1.09511 5.19177 0.684891 5.77478C0.479446 6.06659 0.324661 6.31091 0.220291 6.48389C0.168106 6.5705 0.0616608 6.7594 0.0616608 6.7594L0.0591583 6.7641L0.0583649 6.76562L0.0578156 6.7666C-0.0192719 6.91272 -0.0192719 7.08728 0.0578156 7.2334C0.0578156 7.2334 0.168106 7.4295 0.220291 7.51611C0.324661 7.68909 0.479446 7.93341 0.684891 8.22522C1.09511 8.80823 1.71004 9.58508 2.53114 10.363C4.17183 11.9173 6.66371 13.5 10 13.5C13.3363 13.5 15.8282 11.9173 17.4689 10.363C18.29 9.58508 18.9049 8.80823 19.3152 8.22522C19.5205 7.93341 19.6754 7.68909 19.7797 7.51611C19.8319 7.4295 19.8715 7.36072 19.8986 7.31268C19.9121 7.28857 19.9422 7.2334 19.9422 7.2334C20.0193 7.08728 20.0193 6.91272 19.9422 6.7666ZM18.4973 7.64978C18.1159 8.19177 17.5434 8.91492 16.7811 9.63702C15.2552 11.0827 12.997 12.5 10 12.5C7.00301 12.5 4.74483 11.0827 3.21889 9.63702C2.45662 8.91492 1.88411 8.19177 1.50264 7.64978C1.31239 7.37939 1.17043 7.15509 1.07686 7C1.17043 6.84491 1.31239 6.62061 1.50264 6.35022C1.88411 5.80823 2.45662 5.08508 3.21889 4.36298C4.74483 2.91736 7.00301 1.5 10 1.5C12.997 1.5 15.2552 2.91736 16.7811 4.36298C17.5434 5.08508 18.1159 5.80823 18.4973 6.35022C18.6876 6.62061 18.8296 6.84491 18.9232 7C18.8296 7.15509 18.6876 7.37939 18.4973 7.64978Z" fill="#0096D6"/>
<path fill-rule="evenodd" clip-rule="evenodd" d="M13.5 7C13.5 8.933 11.933 10.5 10 10.5C8.06702 10.5 6.50002 8.933 6.50002 7C6.50002 5.067 8.06702 3.5 10 3.5C11.933 3.5 13.5 5.067 13.5 7ZM14.5 7C14.5 9.48528 12.4853 11.5 10 11.5C7.51473 11.5 5.50002 9.48528 5.50002 7C5.50002 4.51472 7.51473 2.5 10 2.5C12.4853 2.5 14.5 4.51472 14.5 7Z" fill="#0096D6"/>
</svg>
