<svg id="Layer_1" data-name="Layer 1" xmlns="http://www.w3.org/2000/svg" viewBox="0 0 21.7 20"><defs><style>.cls-1{fill:#1496d4;}</style></defs><title>Knowledge-base</title><path class="cls-1" d="M4.26,20A.6.6,0,0,1,4,19.92a.58.58,0,0,1-.29-.5v-2c-.43,0-.84.05-1.23.05a3,3,0,0,1-2.3-.74A.59.59,0,0,1,0,16.28a.58.58,0,0,1,.19-.4.54.54,0,0,1,.39-.15.56.56,0,0,1,.42.18,2,2,0,0,0,1.46.38c.39,0,.82,0,1.29-.06s1.18-.07,1.85-.07a11.42,11.42,0,0,1,5.25,1.15,11.43,11.43,0,0,1,5.26-1.15c.66,0,1.28,0,1.84.07s.91.06,1.29.06a2,2,0,0,0,1.46-.38.57.57,0,0,1,.43-.18.58.58,0,0,1,.39.15.57.57,0,0,1,.18.4.55.55,0,0,1-.15.42,3,3,0,0,1-2.3.74c-.42,0-.88,0-1.36-.06s-1.17-.07-1.81-.07a10.11,10.11,0,0,0-4.95,1.16.55.55,0,0,1-.28.07.52.52,0,0,1-.27-.07,9.42,9.42,0,0,0-2.83-1v1.93a.57.57,0,0,1-.29.5.6.6,0,0,1-.29.08.64.64,0,0,1-.28-.07l-1.17-.65-1.18.65A.64.64,0,0,1,4.26,20Zm1.46-2a.52.52,0,0,1,.27.07l.6.33v-1.1l-1,0-.78,0v1.11l.6-.33A.53.53,0,0,1,5.72,18Zm5.13-1.42a.67.67,0,0,1-.28-.07,10.32,10.32,0,0,0-5-1.16c-.61,0-1.2,0-1.75.07s-.94.06-1.36.06a3,3,0,0,1-2.31-.74.59.59,0,0,1-.15-.4V.58A.61.61,0,0,1,.28.08.61.61,0,0,1,.58,0,.52.52,0,0,1,.85.07a10.14,10.14,0,0,0,5,1.16c.63,0,1.23,0,1.8-.07S8.55,1.1,9,1.1a3.44,3.44,0,0,1,1.88.4,3.46,3.46,0,0,1,1.88-.4c.42,0,.88,0,1.37.06s1.16.07,1.8.07a10.13,10.13,0,0,0,5-1.16A.53.53,0,0,1,21.13,0a.6.6,0,0,1,.29.08.58.58,0,0,1,.28.5v13.8a.59.59,0,0,1-.15.4,3,3,0,0,1-2.3.74c-.42,0-.88,0-1.37-.06s-1.16-.07-1.8-.07a10.13,10.13,0,0,0-4.95,1.16A.61.61,0,0,1,10.85,16.62ZM5.6,14.24a11.51,11.51,0,0,1,4.67.88V2.5A2.42,2.42,0,0,0,9,2.26c-.39,0-.82,0-1.29.05s-1.18.07-1.85.07A11.51,11.51,0,0,1,1.16,1.5V14.12a2.43,2.43,0,0,0,1.3.25c.39,0,.82,0,1.29-.06S5,14.24,5.6,14.24Zm5.83.88a11.53,11.53,0,0,1,4.68-.88c.66,0,1.28,0,1.84.07s.91.06,1.29.06a2.45,2.45,0,0,0,1.31-.25V1.5a11.56,11.56,0,0,1-4.68.88c-.66,0-1.28,0-1.84-.07s-.91-.05-1.3-.05a2.44,2.44,0,0,0-1.3.24ZM15,11.05A.58.58,0,1,1,15,9.9H17a.58.58,0,1,1,0,1.15Zm-10.28,0a.58.58,0,1,1,0-1.15H6.76a.58.58,0,1,1,0,1.15ZM14,9.15A.58.58,0,0,1,14,8h4a.58.58,0,0,1,0,1.16Zm-10.27,0A.58.58,0,1,1,3.73,8h4a.58.58,0,1,1,0,1.16ZM14,7.24a.58.58,0,0,1,0-1.16h4a.58.58,0,0,1,0,1.16Zm-10.27,0a.58.58,0,0,1,0-1.16h4a.58.58,0,1,1,0,1.16Z"/></svg>