<svg width="17" height="16" viewBox="0 0 17 16" fill="none" xmlns="http://www.w3.org/2000/svg">
<path fill-rule="evenodd" clip-rule="evenodd" d="M12.5753 15.9505V15.9671C12.428 15.9671 12.2538 15.9734 12.0574 15.9804C10.5163 16.0358 7.61081 16.1402 5.61253 13.6541H3.72603V14.5583C3.72603 14.8176 3.5175 15.0279 3.26027 15.0279H0.465753C0.208525 15.0279 0 14.8176 0 14.5583V5.16584C0 4.90647 0.208525 4.69622 0.465753 4.69622H3.26027C3.5175 4.69622 3.72603 4.90647 3.72603 5.16584V6.06845H5.96016C6.48625 5.63582 7.23649 5.02672 7.92442 4.48474C8.29732 4.19096 8.65424 3.91506 8.94821 3.69712C9.22827 3.48949 9.48639 3.30756 9.64364 3.22829C9.73556 3.18195 9.89795 3.06757 10.1128 2.88631C10.3196 2.71183 10.5512 2.49583 10.7764 2.26873C11.0017 2.04164 11.2159 1.8081 11.3889 1.59958C11.5687 1.38295 11.6821 1.21921 11.7281 1.12652C11.8823 0.815449 12.0521 0.548993 12.2452 0.354279C12.4393 0.158605 12.6941 0 13.0045 0C13.3628 0 13.7888 0.0906589 14.1219 0.426523C14.455 0.762387 14.6166 1.26415 14.6166 1.91449C14.6166 2.30834 14.4523 2.79252 14.2595 3.24302C14.0586 3.71244 13.7942 4.21688 13.5349 4.67572C13.3348 5.02986 13.1351 5.36155 12.9652 5.63546H14.6712C15.5715 5.63546 16.3014 6.37136 16.3014 7.27913C16.3014 7.59405 16.2135 7.88828 16.0612 8.13828C16.6159 8.40057 17 8.96868 17 9.62724C17 10.2858 16.6159 10.8539 16.0612 11.1162C16.2135 11.3662 16.3014 11.6604 16.3014 11.9753C16.3014 12.5638 15.9947 13.08 15.5337 13.3704C15.7238 13.6392 15.8356 13.9682 15.8356 14.3235C15.8356 15.2312 15.1058 15.9671 14.2055 15.9671H12.8082C12.7292 15.9671 12.6514 15.9615 12.5753 15.9505ZM12.5613 1.54656C12.6936 1.27969 12.8104 1.11268 12.9039 1.01842C12.9641 0.957686 12.9986 0.942472 13.0088 0.939251C13.2213 0.939978 13.3671 0.993735 13.4633 1.09067C13.56 1.18826 13.6851 1.40893 13.6851 1.91449C13.6851 2.09859 13.5942 2.4272 13.4043 2.87081C13.2225 3.29549 12.9766 3.76645 12.7255 4.21077C12.4753 4.65358 12.2245 5.06207 12.0358 5.36033C11.9416 5.50926 11.8633 5.63022 11.8086 5.71367C11.8051 5.71901 11.8017 5.72419 11.7984 5.72922C11.1656 5.95505 10.7123 6.56372 10.7123 7.27913C10.7123 7.33086 10.7147 7.38203 10.7193 7.43254C10.7148 7.45898 10.7124 7.48618 10.7124 7.51394C10.7124 7.88143 10.6084 8.22122 10.4316 8.52834C10.3408 8.63006 10.2625 8.74325 10.1989 8.86551C10.0598 9.03736 9.89791 9.19633 9.7204 9.34128C9.13448 9.81969 8.4564 10.0791 8.08607 10.1164C7.83012 10.1422 7.64338 10.3724 7.66897 10.6304C7.69457 10.8885 7.9228 11.0768 8.17876 11.051C8.71277 10.9971 9.46328 10.7001 10.1211 10.2152C10.2722 10.6129 10.5723 10.9364 10.9525 11.1162C10.8002 11.3662 10.7123 11.6604 10.7123 11.9753C10.7123 12.5638 11.019 13.08 11.48 13.3704C11.2899 13.6392 11.1781 13.9682 11.1781 14.3235C11.1781 14.5859 11.2391 14.834 11.3476 15.0541C9.76992 15.0688 7.68701 14.8774 6.21168 12.902C6.12368 12.7841 5.9859 12.7148 5.83962 12.7148H3.72603V7.00769H6.12621C6.23373 7.00769 6.33793 6.97019 6.42114 6.90154C6.94477 6.46956 7.75872 5.80724 8.49794 5.22485C8.86779 4.93347 9.21661 4.66393 9.50001 4.45383C9.79731 4.23341 9.98819 4.10469 10.0602 4.06838C10.2549 3.97023 10.4866 3.79563 10.7106 3.60665C10.9426 3.41088 11.1946 3.17536 11.4351 2.93288C11.6756 2.69039 11.9092 2.43628 12.1033 2.20231C12.2908 1.97645 12.4639 1.74285 12.5613 1.54656ZM10.9966 9.36156C10.9635 9.44355 10.9452 9.53325 10.9452 9.62724C10.9452 10.0163 11.258 10.3317 11.6438 10.3317H15.3699C15.7557 10.3317 16.0685 10.0163 16.0685 9.62724C16.0685 9.23819 15.7557 8.92281 15.3699 8.92281H11.6438C11.4621 8.92281 11.2966 8.99277 11.1723 9.10743C11.1172 9.19519 11.0584 9.27991 10.9966 9.36156ZM2.79452 14.0886H0.931507V5.63546H2.79452V14.0886ZM12.8082 13.619H14.2055C14.5913 13.619 14.9041 13.9344 14.9041 14.3235C14.9041 14.7125 14.5913 15.0279 14.2055 15.0279H12.8082C12.4224 15.0279 12.1096 14.7125 12.1096 14.3235C12.1096 13.9344 12.4224 13.619 12.8082 13.619ZM15.3699 11.9753C15.3699 12.3644 15.0571 12.6798 14.6712 12.6798H12.3425C11.9566 12.6798 11.6438 12.3644 11.6438 11.9753C11.6438 11.5863 11.9566 11.2709 12.3425 11.2709H14.6712C15.0571 11.2709 15.3699 11.5863 15.3699 11.9753ZM15.3699 7.27913C15.3699 7.66818 15.0571 7.98357 14.6712 7.98357H12.3425C11.9566 7.98357 11.6438 7.66818 11.6438 7.27913C11.6438 6.89009 11.9566 6.5747 12.3425 6.5747H14.6712C15.0571 6.5747 15.3699 6.89009 15.3699 7.27913Z" fill="#0096D6"/>
</svg>
