<svg xmlns="http://www.w3.org/2000/svg" width="80" height="64" viewBox="0 0 80 64">
  <defs>
    <style>
      .cls-1 {
        fill: #5a5a5a;
        fill-rule: evenodd;
      }
    </style>
  </defs>
  <path id="Notebook_64px.png" class="cls-1" d="M922.842,649a0.849,0.849,0,0,1-.847-0.849v-2.126h30.768a1.965,1.965,0,0,0,1.808,1.186H969.42a1.962,1.962,0,0,0,1.807-1.186H1002v2.126a0.85,0.85,0,0,1-.85.849H922.842Zm3.42-5.976a2.736,2.736,0,0,1-2.73-2.737v-52.55a2.737,2.737,0,0,1,2.73-2.737h71.471a2.734,2.734,0,0,1,2.727,2.737v52.55a2.734,2.734,0,0,1-2.727,2.737H926.262Zm0-56.054a0.767,0.767,0,0,0-.765.767v52.55a0.767,0.767,0,0,0,.765.767h71.471a0.767,0.767,0,0,0,.765-0.767v-52.55a0.767,0.767,0,0,0-.765-0.767H926.262Z" transform="translate(-922 -585)"/>
</svg>
