<svg xmlns="http://www.w3.org/2000/svg" width="64" height="64" viewBox="0 0 64 64">
  <defs>
    <style>
      .cls-1 {
        fill: #5a5a5a;
        fill-rule: evenodd;
      }
    </style>
  </defs>
  <path id="Printer_64px.png" class="cls-1" d="M1239.86,649a0.841,0.841,0,0,1-.83-0.853V630.379h-10.61a4.469,4.469,0,0,1-4.42-4.51V600.794a4.469,4.469,0,0,1,4.42-4.51h10.61V585.853a0.841,0.841,0,0,1,.83-0.853h32.28a0.841,0.841,0,0,1,.83.853v10.431h10.61a4.469,4.469,0,0,1,4.42,4.51v25.075a4.469,4.469,0,0,1-4.42,4.51h-10.61v17.768a0.841,0.841,0,0,1-.83.853h-32.28Zm0.84-1.705h30.6V623.224h-30.6v24.071Zm32.27-18.62h10.61a2.779,2.779,0,0,0,2.75-2.806V600.794a2.779,2.779,0,0,0-2.75-2.8h-3.84V604.7a0.843,0.843,0,0,1-.84.852h-45.81a0.841,0.841,0,0,1-.83-0.852v-6.706h-3.84a2.779,2.779,0,0,0-2.75,2.8v25.075a2.779,2.779,0,0,0,2.75,2.806h10.61v-5.451h-3.53a0.853,0.853,0,0,1,0-1.705h41a0.853,0.853,0,0,1,0,1.705h-3.53v5.451Zm0-24.833h5.1v-5.853h-5.1v5.853Zm-32.27,0h30.6V586.7h-30.6v17.138Zm-6.77,0h5.1v-5.853h-5.1v5.853Zm-4.55,9.078a1.25,1.25,0,1,1,1.23-1.25A1.239,1.239,0,0,1,1229.38,612.92Zm18.97,25.434a0.852,0.852,0,0,1,0-1.7h7.2a0.852,0.852,0,0,1,0,1.7h-7.2Zm0-7.975a0.853,0.853,0,0,1,0-1.705h15.3a0.853,0.853,0,0,1,0,1.705h-15.3Z" transform="translate(-1224 -585)"/>
</svg>
