<svg width="18" height="18" viewBox="0 0 18 18" fill="none" xmlns="http://www.w3.org/2000/svg">
<path d="M13.1786 7.12856C13.3738 6.9333 13.3738 6.61672 13.1786 6.42146C12.9833 6.22619 12.6667 6.22619 12.4715 6.42146L7.40002 11.4929L4.95355 9.04643C4.75829 8.85117 4.44171 8.85117 4.24645 9.04643C4.05118 9.24169 4.05118 9.55827 4.24645 9.75354L7.04646 12.5536C7.24173 12.7488 7.55831 12.7488 7.75357 12.5536L13.1786 7.12856ZM16.1 9C16.1 12.9212 12.9212 16.1 9 16.1C5.07878 16.1 1.9 12.9212 1.9 9C1.9 5.07878 5.07878 1.9 9 1.9C12.9212 1.9 16.1 5.07878 16.1 9ZM9 17.1C13.4735 17.1 17.1 13.4735 17.1 9C17.1 4.52649 13.4735 0.9 9 0.9C4.52649 0.9 0.9 4.52649 0.9 9C0.9 13.4735 4.52649 17.1 9 17.1Z" fill="#0096D6" stroke="#0096D6" stroke-width="0.2"/>
</svg>
