<svg width="47" height="47" viewBox="0 0 47 47" fill="none" xmlns="http://www.w3.org/2000/svg">
<circle cx="23.4455" cy="23.4455" r="22.9455" fill="#0BC94F" stroke="white"/>
<path d="M30.1123 20.2197C30.4327 19.8993 30.4327 19.3799 30.1123 19.0596C29.792 18.7392 29.2726 18.7392 28.9522 19.0596L21.7976 26.2142L18.3856 22.8021C18.0652 22.4818 17.5458 22.4818 17.2255 22.8021C16.9051 23.1225 16.9051 23.6418 17.2255 23.9622L21.2176 27.9543C21.5379 28.2746 22.0573 28.2746 22.3777 27.9543L30.1123 20.2197ZM34.0941 22.8119C34.0941 28.3432 29.6101 32.8272 24.0788 32.8272C18.5475 32.8272 14.0634 28.3432 14.0634 22.8119C14.0634 17.2806 18.5475 12.7965 24.0788 12.7965C29.6101 12.7965 34.0941 17.2806 34.0941 22.8119ZM24.0788 34.4678C30.5162 34.4678 35.7347 29.2493 35.7347 22.8119C35.7347 16.3745 30.5162 11.1559 24.0788 11.1559C17.6414 11.1559 12.4229 16.3745 12.4229 22.8119C12.4229 29.2493 17.6414 34.4678 24.0788 34.4678Z" fill="white" stroke="white" stroke-width="0.5"/>
</svg>
