<svg width="18" height="17" viewBox="0 0 18 17" fill="none" xmlns="http://www.w3.org/2000/svg">
<path d="M16.0826 1.00592C16.6856 1.00592 17.0877 1.40828 17.0877 2.01184V12.071C17.0877 12.6746 16.6856 13.0769 16.0826 13.0769H8.54386C7.94076 13.0769 7.33767 13.3787 6.9356 13.8817L5.22683 16.0947C5.22683 16.0947 5.22683 16.0947 5.12632 16.0947C5.12632 16.0947 5.0258 16.0947 5.0258 15.9941V14.3846C5.0258 13.6805 4.42271 13.1775 3.81961 13.1775H2.01032C1.40722 13.1775 1.00516 12.7752 1.00516 12.1716V2.11243C1.00516 1.50888 1.40722 1.00592 2.01032 1.00592H15.9819H16.0826ZM16.0826 0H2.01032C0.904644 0 0 0.905326 0 2.01184V12.071C0 13.1775 0.904644 14.0828 2.01032 14.0828H3.81961C3.92013 14.0828 4.02064 14.1834 4.02064 14.284V15.8935C4.02064 16.5976 4.52322 17 5.12632 17C5.42786 17 5.72941 16.8994 5.93044 16.5976L7.63922 14.3846C7.84025 14.1834 8.14179 13.9822 8.44334 13.9822H15.982C17.0877 13.9822 17.9924 13.0769 17.9924 11.9704V1.91124C18.0929 0.90532 17.1882 0 16.0826 0Z" fill="#0096D6"/>
</svg>
