<svg width="20" height="13" viewBox="0 0 20 13" fill="none" xmlns="http://www.w3.org/2000/svg">
<path d="M19.9422 6.2666C19.9422 6.2666 19.9121 6.21143 19.8986 6.18732C19.8715 6.13928 19.8319 6.0705 19.7797 5.98389C19.6754 5.81091 19.5205 5.56659 19.3152 5.27478C18.9049 4.69177 18.29 3.91492 17.4689 3.13702C15.8282 1.5827 13.3363 0 10 0C6.66371 0 4.17183 1.5827 2.53114 3.13702C1.71004 3.91492 1.09511 4.69177 0.684891 5.27478C0.479446 5.56659 0.324661 5.81091 0.220291 5.98389C0.168106 6.0705 0.0616608 6.2594 0.0616608 6.2594L0.0591583 6.2641L0.0583649 6.26562L0.0578156 6.2666C-0.0192719 6.41272 -0.0192719 6.58728 0.0578156 6.7334C0.0578156 6.7334 0.168106 6.9295 0.220291 7.01611C0.324661 7.18909 0.479446 7.43341 0.684891 7.72522C1.09511 8.30823 1.71004 9.08508 2.53114 9.86298C4.17183 11.4173 6.66371 13 10 13C13.3363 13 15.8282 11.4173 17.4689 9.86298C18.29 9.08508 18.9049 8.30823 19.3152 7.72522C19.5205 7.43341 19.6754 7.18909 19.7797 7.01611C19.8319 6.9295 19.8715 6.86072 19.8986 6.81268C19.9121 6.78857 19.9422 6.7334 19.9422 6.7334C20.0193 6.58728 20.0193 6.41272 19.9422 6.2666ZM18.4973 7.14978C18.1159 7.69177 17.5434 8.41492 16.7811 9.13702C15.2552 10.5827 12.997 12 10 12C7.00301 12 4.74483 10.5827 3.21889 9.13702C2.45662 8.41492 1.88411 7.69177 1.50264 7.14978C1.31239 6.87939 1.17043 6.65509 1.07686 6.5C1.17043 6.34491 1.31239 6.12061 1.50264 5.85022C1.88411 5.30823 2.45662 4.58508 3.21889 3.86298C4.74483 2.41736 7.00301 1 10 1C12.997 1 15.2552 2.41736 16.7811 3.86298C17.5434 4.58508 18.1159 5.30823 18.4973 5.85022C18.6876 6.12061 18.8296 6.34491 18.9232 6.5C18.8296 6.65509 18.6876 6.87939 18.4973 7.14978Z" fill="#0096D6"/>
<path fill-rule="evenodd" clip-rule="evenodd" d="M13.5 6.5C13.5 8.433 11.933 10 10 10C8.06702 10 6.50002 8.433 6.50002 6.5C6.50002 4.567 8.06702 3 10 3C11.933 3 13.5 4.567 13.5 6.5ZM14.5 6.5C14.5 8.98528 12.4853 11 10 11C7.51473 11 5.50002 8.98528 5.50002 6.5C5.50002 4.01472 7.51473 2 10 2C12.4853 2 14.5 4.01472 14.5 6.5Z" fill="#0096D6"/>
</svg>
